
<svg xmlns="http://www.w3.org/2000/svg" width="1350" height="1350" viewBox="0 0 1080 1350" preserveAspectRatio="none">
  <defs>
    <filter id="shadow" x="-50%" y="-50%" width="200%" height="200%"><feDropShadow dx="0" dy="22" stdDeviation="28" flood-color="#6D5545" flood-opacity=".18"/></filter>
    <filter id="maskBlur" x="-50%" y="-50%" width="200%" height="200%"><feGaussianBlur stdDeviation="26"/></filter>
    <mask id="productFade" maskUnits="userSpaceOnUse" x="520" y="100" width="544" height="660"><ellipse cx="792" cy="430" rx="174" ry="264" fill="white" filter="url(#maskBlur)"/></mask>
    <mask id="coverFade1" maskUnits="userSpaceOnUse" x="70" y="790" width="212" height="230"><ellipse cx="176" cy="905" rx="68" ry="92" fill="white" filter="url(#maskBlur)"/></mask>
    <mask id="coverFade2" maskUnits="userSpaceOnUse" x="252" y="790" width="212" height="230"><ellipse cx="358" cy="905" rx="68" ry="92" fill="white" filter="url(#maskBlur)"/></mask>
    <mask id="coverFade3" maskUnits="userSpaceOnUse" x="434" y="790" width="212" height="230"><ellipse cx="540" cy="905" rx="68" ry="92" fill="white" filter="url(#maskBlur)"/></mask>
    <mask id="coverFade4" maskUnits="userSpaceOnUse" x="616" y="790" width="212" height="230"><ellipse cx="722" cy="905" rx="68" ry="92" fill="white" filter="url(#maskBlur)"/></mask>
    <mask id="coverFade5" maskUnits="userSpaceOnUse" x="798" y="790" width="212" height="230"><ellipse cx="904" cy="905" rx="68" ry="92" fill="white" filter="url(#maskBlur)"/></mask>
    <clipPath id="productCircle"><circle cx="792" cy="430" r="248"/></clipPath>
    <clipPath id="cover1"><circle cx="176" cy="905" r="92"/></clipPath>
    <clipPath id="cover2"><circle cx="358" cy="905" r="92"/></clipPath>
    <clipPath id="cover3"><circle cx="540" cy="905" r="92"/></clipPath>
    <clipPath id="cover4"><circle cx="722" cy="905" r="92"/></clipPath>
    <clipPath id="cover5"><circle cx="904" cy="905" r="92"/></clipPath>
    <radialGradient id="glow" cx="76%" cy="16%" r="72%"><stop offset="0" stop-color="#E9D6CF"/><stop offset="1" stop-color="#F4EFE7"/></radialGradient>
    <style>
      .sans{font-family:'Apple SD Gothic Neo','Helvetica Neue',sans-serif;fill:#1C1C1C}.serif{font-family:'New York','Times New Roman',serif;fill:#1C1C1C}
      .eyebrow{font-family:'Helvetica Neue',sans-serif;font-weight:600;letter-spacing:5px;fill:#9A6B50}.body{font-family:'Apple SD Gothic Neo',sans-serif;fill:#4D4842}.bold{font-family:'Apple SD Gothic Neo',sans-serif;font-weight:700;fill:#1C1C1C}
    </style>
  </defs>
  <rect width="1080" height="1350" fill="url(#glow)"/>
  <text x="72" y="78" class="eyebrow" font-size="20">A DROP OF SEOUL · BEAUTY EDIT</text>
  <text x="1008" y="78" text-anchor="end" class="sans" font-size="19" fill="#8E857B">07 / 08</text>
  
  <text x="72" y="210" class="serif" font-size="72" font-weight="600">Which one should you buy?</text>
  <text x="74" y="272" class="body" font-size="28">Choose by the missing function, not the product name.</text>
  <g transform="translate(72 350)"><rect width="936" height="118" rx="26" fill="#FCFAF6" stroke="#D7CEC3"/><circle cx="62" cy="59" r="32" fill="#B9DADF"/><text x="116" y="47" class="bold" font-size="25">Tight, dehydrated skin</text><text x="116" y="87" class="eyebrow" font-size="20" style="letter-spacing:3px">Torriden DIVE-IN Serum</text></g><g transform="translate(72 500)"><rect width="936" height="118" rx="26" fill="#FCFAF6" stroke="#D7CEC3"/><circle cx="62" cy="59" r="32" fill="#A9D8D2"/><text x="116" y="47" class="bold" font-size="25">Fast glow before makeup</text><text x="116" y="87" class="eyebrow" font-size="20" style="letter-spacing:3px">Anua PDRN Capsule 100 Serum</text></g><g transform="translate(72 650)"><rect width="936" height="118" rx="26" fill="#FCFAF6" stroke="#D7CEC3"/><circle cx="62" cy="59" r="32" fill="#AFCBC6"/><text x="116" y="47" class="bold" font-size="25">A lingering post-breakout mark</text><text x="116" y="87" class="eyebrow" font-size="20" style="letter-spacing:3px">Mediheal Blemish Repair Serum</text></g><g transform="translate(72 800)"><rect width="936" height="118" rx="26" fill="#FCFAF6" stroke="#D7CEC3"/><circle cx="62" cy="59" r="32" fill="#DED9CF"/><text x="116" y="47" class="bold" font-size="25">A weightless first layer</text><text x="116" y="87" class="eyebrow" font-size="20" style="letter-spacing:3px">COSRX The 6 Peptide Booster</text></g><g transform="translate(72 950)"><rect width="936" height="118" rx="26" fill="#FCFAF6" stroke="#D7CEC3"/><circle cx="62" cy="59" r="32" fill="#D8E4D7"/><text x="116" y="47" class="bold" font-size="25">Texture + first retinol</text><text x="116" y="87" class="eyebrow" font-size="20" style="letter-spacing:3px">innisfree Retinol Cica Serum</text></g>
  <text x="72" y="1158" class="bold" font-size="27">If two sound right:</text>
  <text x="72" y="1200" class="body" font-size="25">Start with the gentler hydrator. Add one thing at a time.</text>

  <line x1="72" y1="1274" x2="1008" y2="1274" stroke="#B78B62" stroke-width="2"/>
  <text x="72" y="1314" class="eyebrow" font-size="17">ADROPOFSEOUL.COM</text>
</svg>